<svg xmlns="http://www.w3.org/2000/svg" viewBox="0 0 547.53 430.68"><defs>
<style>.cls-1{fill:#ed6529;stroke:#fff;stroke-miterlimit:10;}
</style></defs><g id="Layer_2" data-name="Layer 2">
<g id="Layer_5" data-name="Layer 5">
<polygon  fill ="" class="cls-1" points="209.3 165.71 227.45 235.6 191.15 235.6 209.3 165.71"/><path class="cls-1" d="M215.35.5C96.68.5.5,96.68.5,215.33S96.68,430.18,215.35,430.18,430.18,334,430.18,215.33,334,.5,215.35.5ZM336.94,367.37c-4.87,15.47-18.66,27-33.94,32.37s-32,5.37-48.1,3.65c-17.45-1.86-35.06-5.8-50-15.07s-26.76-24.61-28.52-42.05c10.42,12.19,29,16.65,43.79,10.54,13.92-5.75,20.48-18.57,24.67-32.22,3.7-12.06-.17-22.62-3.21-34.53-6.56,0-64.09-2.58-64.75,0,0,0-6.95,27.23-6.95,27.23H124.62c-9.42,0-18.92.34-28.34,0-5.4-.18-7-.09-7.34-3.21a.15.15,0,0,1,0-.06,31.73,31.73,0,0,1-.09-4,42.85,42.85,0,0,0-5.91-23.44c-5.54-9.4-13.55-17.06-20.36-25.6A119.31,119.31,0,0,1,94,84.66c12.55-7.62,26.39-12.87,39.2-20s25-16.7,31.21-30a141.91,141.91,0,0,1-9.12,64.81H266.78q15.84,54.06,31.69,108.12l22.74,77.63C328.57,310.32,345,341.82,336.94,367.37Z"/><path d="M88.93,314l-1,3.27,1-3.21A.15.15,0,0,1,88.93,314Z"/><path d="M375.37,342.11H344.72V317.59h71.12v20.84l-30.29,42.92h31.51v24.53H343.49V385Z"/>
<path d="M461.45,405.88H429.57V317.59h31.88Z"/><rect class="cls-1" x="429.57" y="280.84" width="31.88" height="24.54" /><path d="M505.84,342.11H475.19V317.59h71.12v20.84L516,381.35h31.51v24.53H474V385Z"/></g></g></svg>